<svg width="230" height="72" viewBox="0 0 230 72" fill="none" xmlns="http://www.w3.org/2000/svg">
<g clip-path="url(#clip0_47_300)">
<g clip-path="url(#clip1_47_300)">
<path fill-rule="evenodd" clip-rule="evenodd" d="M23.084 67.5469C27.4209 65.2977 32.3419 65.4653 36.5339 67.9152C36.6622 67.9907 36.8071 67.9907 36.9339 67.9152C37.0622 67.8428 37.1347 67.7144 37.1347 67.5695V57.4436C37.1347 57.3364 37.1 57.2459 37.0275 57.1704C31.8136 51.6697 23.6999 50.0786 16.8074 53.1762C16.6096 53.2667 16.5175 53.4977 16.6036 53.7015L22.5315 67.3491C22.5783 67.4533 22.6568 67.5288 22.767 67.5695C22.8711 67.6073 22.9813 67.5982 23.084 67.5469ZM52.3869 67.5469C48.0501 65.2977 43.126 65.4653 38.937 67.9152C38.8087 67.9907 38.6638 67.9907 38.537 67.9152C38.4087 67.8428 38.3363 67.7144 38.3363 67.5695V57.4436C38.3363 57.3364 38.371 57.2459 38.4464 57.1704C43.6573 51.6697 51.7711 50.0786 58.6636 53.1762C58.8613 53.2667 58.9534 53.4977 58.8674 53.7015L52.9394 67.3491C52.8926 67.4533 52.8141 67.5288 52.707 67.5695C52.5968 67.6073 52.4896 67.5982 52.3869 67.5469Z" fill="#56CC99"/>
<path fill-rule="evenodd" clip-rule="evenodd" d="M40.036 71.1894C43.4355 68.2398 48.0894 68.8587 51.8753 70.6701C52.0006 70.7305 52.1394 70.723 52.2587 70.6475C52.381 70.575 52.4474 70.4527 52.4474 70.3108V69.1757C52.4474 69.0278 52.3749 68.8994 52.2406 68.824C47.8388 66.3498 42.7411 66.6638 38.5929 69.5561C38.2186 69.8203 37.257 69.8203 36.8796 69.5561C32.7314 66.6653 27.6368 66.3514 23.232 68.824C23.1006 68.8994 23.0251 69.0278 23.0251 69.1757V70.3108C23.0251 70.4527 23.0916 70.575 23.2138 70.6475C23.3331 70.723 23.472 70.732 23.6003 70.6701C27.3832 68.8587 32.037 68.2398 35.4365 71.1894C35.4395 71.1924 35.4455 71.1954 35.4486 71.1985C36.7724 72.2672 38.7001 72.2672 40.024 71.1985C40.027 71.1954 40.033 71.1924 40.036 71.1894Z" fill="white"/>
<path fill-rule="evenodd" clip-rule="evenodd" d="M53.6806 68.6474L58.4296 57.7093C58.5051 57.5357 58.6908 57.4391 58.8794 57.4768C59.0651 57.5176 59.1964 57.6776 59.1964 57.8693V61.4575C59.1964 61.5269 59.1813 61.5888 59.1496 61.6492L54.3977 70.3727C54.3071 70.5358 54.1274 70.6173 53.9478 70.5705C53.7712 70.5237 53.6489 70.3667 53.6489 70.181V68.8074C53.6489 68.75 53.658 68.7002 53.6806 68.6474Z" fill="white"/>
<path fill-rule="evenodd" clip-rule="evenodd" d="M21.7934 68.6474L17.0444 57.7093C16.969 57.5357 16.7833 57.4391 16.5976 57.4768C16.4089 57.5176 16.2776 57.6776 16.2776 57.8693V61.4575C16.2776 61.5269 16.2927 61.5888 16.3274 61.6492L21.0764 70.3727C21.167 70.5358 21.3466 70.6173 21.5262 70.5705C21.7028 70.5237 21.8281 70.3667 21.8281 70.181V68.8074C21.8281 68.75 21.8161 68.7002 21.7934 68.6474Z" fill="white"/>
<path fill-rule="evenodd" clip-rule="evenodd" d="M1.63967 18.4615C17.1395 27.1187 27.7258 21.2134 33.4047 0.75024C33.5375 0.256624 34.0145 -0.0603774 34.5217 0.0105705C35.0305 0.0769898 35.4048 0.498148 35.4124 1.00686C35.7897 25.9881 22.4123 48.6959 1.54457 60.8099C1.09775 61.068 0.537713 60.9578 0.220712 60.5517C-0.0993079 60.1396 -0.0615697 59.5645 0.308265 59.1992C7.17058 52.3686 10.01 45.0443 8.82352 37.2295C8.79182 37.0061 8.90201 36.7933 9.10731 36.6921C9.3111 36.594 9.54507 36.6363 9.70206 36.8023C11.0833 38.2651 12.4449 39.7459 13.7899 41.2494C13.9589 41.432 14.2246 41.4728 14.4405 41.343C14.6518 41.2117 14.7394 40.9535 14.6488 40.7195C11.6011 32.9772 7.13285 27.3829 0.339965 19.9998C-0.417819 19.1756 0.659985 17.9181 1.63816 18.4646L1.63967 18.4615Z" fill="white"/>
<path fill-rule="evenodd" clip-rule="evenodd" d="M20.7744 14.7134C18.978 17.2358 15.4759 17.823 12.9565 16.0252C10.4371 14.2288 9.84992 10.7298 11.6478 8.20733C13.4441 5.68792 16.9432 5.10072 19.4626 6.89857C21.985 8.6934 22.5722 12.194 20.7744 14.7134Z" fill="white"/>
<path fill-rule="evenodd" clip-rule="evenodd" d="M73.833 18.4615C58.3331 27.1187 47.7453 21.2134 42.071 0.75024C41.9351 0.256624 41.4581 -0.0603774 40.9509 0.0105705C40.4422 0.0769898 40.0678 0.498148 40.0603 1.00686C39.6829 25.9881 53.0603 48.6959 73.9281 60.8099C74.3779 61.068 74.9349 60.9578 75.2519 60.5517C75.5719 60.1396 75.5342 59.5645 75.1644 59.1992C68.302 52.3686 65.4656 45.0443 66.6491 37.2295C66.6808 37.0061 66.5706 36.7933 66.3653 36.6921C66.1646 36.594 65.9276 36.6363 65.7736 36.8023C64.3924 38.2651 63.0278 39.7459 61.6828 41.2494C61.5167 41.432 61.248 41.4728 61.0322 41.343C60.8208 41.2117 60.7333 40.9535 60.8253 40.7195C63.8701 32.9772 68.3413 27.3829 75.1312 19.9998C75.8889 19.1756 74.8111 17.9181 73.833 18.4646V18.4615Z" fill="white"/>
<path fill-rule="evenodd" clip-rule="evenodd" d="M54.6996 14.7134C56.4959 17.2358 59.998 17.823 62.5174 16.0252C65.0368 14.2288 65.6271 10.7298 63.8262 8.20733C62.0314 5.68792 58.5308 5.10072 56.0114 6.89857C53.489 8.6934 52.9017 12.194 54.6996 14.7134Z" fill="white"/>
<path fill-rule="evenodd" clip-rule="evenodd" d="M38.4994 32.1726L40.1448 37.2703C40.255 37.6069 40.5539 37.8273 40.9087 37.8243L46.2705 37.8152C46.6222 37.8152 46.9271 38.0326 47.0343 38.3692C47.1445 38.7058 47.0283 39.0606 46.7415 39.2659L42.4016 42.4072C42.1148 42.6155 41.9985 42.9702 42.1087 43.3069L43.7753 48.4015C43.8854 48.7382 43.7692 49.0929 43.4854 49.2982C43.1986 49.5065 42.8258 49.5065 42.5389 49.2982L38.2111 46.1403C37.9243 45.9319 37.5515 45.9319 37.2647 46.1403L32.9368 49.2982C32.653 49.5065 32.2772 49.5065 31.9904 49.2982C31.7066 49.0914 31.5903 48.7382 31.7035 48.4015L33.367 43.3069C33.4772 42.9702 33.361 42.6155 33.0742 42.4072L28.7343 39.2659C28.4475 39.0591 28.3313 38.7058 28.4415 38.3692C28.5517 38.0326 28.8505 37.8152 29.2053 37.8152L34.5671 37.8243C34.9219 37.8273 35.2207 37.6069 35.3309 37.2703L36.9763 32.1726C37.0865 31.836 37.3854 31.6156 37.7402 31.6156C38.0949 31.6156 38.3938 31.836 38.504 32.1726H38.4994Z" fill="#56CC99"/>
<path d="M29.6416 61.071C29.6506 61.0876 29.6536 61.1133 29.6536 61.148C29.6536 61.1993 29.6159 61.2763 29.5374 61.379C29.5117 61.4137 29.4559 61.468 29.3698 61.5465C29.2838 61.6235 29.1691 61.7005 29.0226 61.7775C28.8777 61.8545 28.6996 61.9224 28.4898 61.9828C28.28 62.0432 28.0339 62.0718 27.7516 62.0718C27.5554 62.0718 27.3622 62.0266 27.1735 61.9375C26.9848 61.8484 26.8187 61.7156 26.6723 61.539C26.5274 61.3639 26.4066 61.145 26.313 60.8838C26.2194 60.6227 26.1711 60.3178 26.1711 59.966C26.1711 59.6143 26.2134 59.32 26.2995 59.0286C26.3855 58.7373 26.4942 58.4807 26.627 58.2588C26.7599 58.0369 26.9078 57.8603 27.0693 57.7319C27.2323 57.6036 27.3908 57.5387 27.5448 57.5387C27.6822 57.5387 27.8211 57.5659 27.9614 57.6217C28.1033 57.6776 28.2317 57.7485 28.3464 57.8331C28.4626 57.9191 28.5532 58.0157 28.6226 58.1214C28.6905 58.2286 28.7253 58.3373 28.7253 58.449C28.7253 58.5773 28.6679 58.7101 28.5517 58.8475C28.4354 58.9849 28.2966 59.1101 28.135 59.2264C27.972 59.3426 27.809 59.4362 27.6475 59.5087C27.4844 59.5811 27.3561 59.6173 27.2625 59.6173C27.2112 59.6173 27.1659 59.5932 27.1282 59.5464C27.0904 59.4996 27.0708 59.4422 27.0708 59.3728C27.0708 59.2536 27.1237 59.1585 27.2308 59.0905C27.338 59.0226 27.4558 58.9607 27.5841 58.9048C27.7124 58.849 27.8301 58.7826 27.9373 58.7056C28.0445 58.6286 28.0973 58.5214 28.0973 58.3841C28.0973 58.3675 28.0762 58.3237 28.0339 58.2558C27.9916 58.1878 27.8754 58.1531 27.6867 58.1531C27.6007 58.1531 27.5025 58.2029 27.3908 58.301C27.2791 58.3992 27.172 58.532 27.0693 58.6996C26.9667 58.8671 26.8806 59.0633 26.8127 59.2898C26.7448 59.5162 26.71 59.7623 26.71 60.0279C26.71 60.2498 26.7508 60.4521 26.8323 60.6318C26.9138 60.8114 27.018 60.9638 27.1463 61.0876C27.2746 61.2114 27.4241 61.308 27.5961 61.3759C27.7667 61.4439 27.9433 61.4786 28.123 61.4786C28.2513 61.4786 28.3902 61.4514 28.5396 61.3956C28.689 61.3397 28.8309 61.2808 28.9638 61.2159C29.0966 61.1525 29.2113 61.0922 29.311 61.0363C29.4091 60.9805 29.471 60.9533 29.4966 60.9533C29.5223 60.9533 29.5495 60.9669 29.5797 60.9925C29.6098 61.0182 29.6295 61.0439 29.637 61.0695L29.6416 61.071Z" fill="white"/>
<path d="M48.811 60.7495C48.811 61.1344 48.7431 61.4363 48.6057 61.6552C48.4683 61.8741 48.2676 62.0764 48.0019 62.2651C47.934 62.3073 47.8388 62.3587 47.7196 62.419C47.6003 62.4794 47.4675 62.5353 47.3211 62.5866C47.1762 62.6379 47.0222 62.6802 46.8592 62.7149C46.6961 62.7496 46.5467 62.7662 46.4093 62.7662C46.0244 62.7662 45.7331 62.7255 45.5368 62.644C45.3406 62.5624 45.241 62.4658 45.241 62.3556C45.241 62.2364 45.2757 62.1368 45.3436 62.0598C45.4115 61.9828 45.4719 61.9405 45.5232 61.9315L45.6651 62.0341C45.7074 62.0764 45.7678 62.1217 45.8448 62.1685C45.9217 62.2152 46.0455 62.2394 46.2176 62.2394C46.3806 62.2394 46.5769 62.2122 46.8078 62.1564C47.0388 62.1005 47.2592 62.0145 47.469 61.8998C47.6788 61.7835 47.8585 61.6416 48.0079 61.4695C48.1574 61.299 48.2328 61.1012 48.2328 60.8793C48.2328 60.6831 48.0849 60.5004 47.7905 60.3344C47.4962 60.1683 47.0313 60.0536 46.3973 59.9947C46.0727 59.9691 45.7512 59.9283 45.4342 59.8725C45.1172 59.8166 44.8334 59.7396 44.5813 59.6415C44.3292 59.5434 44.1254 59.4196 43.9714 59.2686C43.8175 59.1192 43.7405 58.9335 43.7405 58.7101C43.7405 58.4867 43.8009 58.2905 43.9201 58.0942C44.0394 57.898 44.1873 57.7153 44.3624 57.5493C44.5375 57.3832 44.7202 57.2353 44.9073 57.107C45.096 56.9787 45.2545 56.8715 45.3828 56.7855C45.4855 56.7251 45.6289 56.6466 45.8131 56.5485C45.9972 56.4504 46.1935 56.3553 46.4033 56.2662C46.6131 56.1756 46.8229 56.0986 47.0328 56.0352C47.2426 55.9703 47.4192 55.9386 47.5656 55.9386C47.7362 55.9386 47.8524 55.9854 47.9128 56.079C47.9732 56.1726 48.0034 56.3054 48.0034 56.4775C48.0034 56.6224 47.9868 56.7779 47.9521 56.9394C47.9173 57.1025 47.8796 57.2595 47.8358 57.4149C47.7936 57.5689 47.7528 57.7033 47.7136 57.8195C47.6758 57.9342 47.6471 58.0097 47.6305 58.0444C47.5958 58.1214 47.5581 58.1727 47.5143 58.1984C47.472 58.2241 47.4418 58.2361 47.4237 58.2361C47.389 58.2361 47.3724 58.215 47.3724 58.1727C47.3724 58.1471 47.3784 58.0973 47.392 58.0248C47.4041 57.9523 47.4222 57.8648 47.4434 57.7621C47.4645 57.6595 47.4826 57.5478 47.4947 57.4285C47.5068 57.3093 47.5143 57.1885 47.5143 57.0693C47.5143 56.8806 47.5052 56.7447 47.4886 56.6587C47.472 56.5726 47.4026 56.5304 47.2833 56.5304C47.1641 56.5304 47.0011 56.5621 46.7958 56.627C46.5905 56.6904 46.3806 56.7704 46.1663 56.864C45.9353 56.9666 45.7104 57.0995 45.493 57.2625C45.2742 57.4255 45.0794 57.5916 44.9089 57.7636C44.7383 57.9342 44.5979 58.1003 44.4922 58.2573C44.385 58.4158 44.3322 58.5411 44.3322 58.6362C44.3322 58.7388 44.4032 58.8354 44.5435 58.9245C44.6854 59.0135 44.8651 59.0935 45.0824 59.1615C45.3013 59.2294 45.5429 59.2898 45.807 59.3411C46.0727 59.3924 46.3338 59.4317 46.5905 59.4573C46.8048 59.483 47.0403 59.5177 47.2969 59.56C47.5535 59.6023 47.7936 59.6717 48.0155 59.7653C48.2374 59.8589 48.4261 59.9857 48.58 60.1442C48.734 60.3027 48.811 60.5065 48.811 60.754V60.7495Z" fill="white"/>
<path d="M118.755 39.6729C118.755 40.2435 118.506 40.5288 118.006 40.5288H106.629V40.5998C106.629 41.0949 106.688 41.5779 106.807 42.0489C106.926 42.5199 107.129 42.932 107.414 43.2852C107.699 43.6385 108.074 43.9222 108.537 44.1336C109 44.3464 109.589 44.4521 110.302 44.4521C110.872 44.4521 111.479 44.44 112.121 44.4159C112.762 44.3932 113.398 44.3691 114.029 44.3449C114.658 44.3208 115.247 44.2921 115.795 44.2558C116.341 44.2196 116.794 44.1789 117.15 44.1306H117.258C117.709 44.1306 117.935 44.3223 117.935 44.7027V47.4334C117.935 47.7217 117.887 47.9361 117.792 48.0795C117.697 48.2229 117.495 48.3316 117.185 48.4025C116.044 48.6908 114.925 48.9052 113.832 49.0486C112.738 49.192 111.419 49.2645 109.873 49.2645C108.803 49.2645 107.732 49.109 106.664 48.801C105.593 48.4931 104.63 47.9814 103.774 47.2674C102.918 46.5534 102.229 45.6084 101.706 44.4325C101.183 43.255 100.921 41.8104 100.921 40.0986V37.6018C100.921 36.1753 101.124 34.8802 101.528 33.7148C101.933 32.551 102.52 31.5637 103.293 30.7546C104.066 29.947 105.011 29.3221 106.128 28.8828C107.245 28.4435 108.517 28.2231 109.944 28.2231C111.37 28.2231 112.672 28.4617 113.778 28.9356C114.883 29.4111 115.805 30.0648 116.542 30.898C117.279 31.7298 117.831 32.717 118.201 33.8582C118.569 34.9994 118.753 36.2478 118.753 37.6034V39.6714L118.755 39.6729ZM113.12 36.8199C113.12 35.4885 112.835 34.4967 112.264 33.8416C111.693 33.188 110.908 32.8604 109.911 32.8604C108.913 32.8604 108.116 33.194 107.521 33.8597C106.926 34.5254 106.629 35.5127 106.629 36.8199V36.9618H113.12V36.8199Z" fill="white"/>
<path d="M139.832 41.4572C139.832 42.4082 139.666 43.3471 139.333 44.2755C138.999 45.2023 138.447 46.0356 137.674 46.7722C136.901 47.5089 135.896 48.1097 134.661 48.5731C133.424 49.0365 131.903 49.269 130.096 49.269C128.669 49.269 127.415 49.198 126.333 49.0546C125.25 48.9112 124.259 48.7225 123.354 48.484C123.164 48.4372 122.998 48.3542 122.855 48.235C122.711 48.1157 122.64 47.9617 122.64 47.7715V44.277C122.64 44.0158 122.699 43.8377 122.819 43.7426C122.938 43.6475 123.092 43.5992 123.282 43.5992H123.389C123.745 43.6475 124.239 43.6943 124.868 43.7426C125.498 43.7909 126.145 43.8317 126.813 43.8679C127.478 43.9041 128.114 43.9388 128.721 43.9751C129.328 44.0113 129.809 44.0279 130.165 44.0279C131.402 44.0279 132.239 43.8256 132.68 43.4211C133.12 43.0165 133.34 42.387 133.34 41.5311C133.34 41.0088 133.18 40.562 132.858 40.1937C132.537 39.8254 131.913 39.368 130.987 38.82L126.066 35.8961C125.234 35.3964 124.55 34.8862 124.016 34.3624C123.481 33.8401 123.052 33.2921 122.731 32.7215C122.409 32.1509 122.184 31.5622 122.053 30.9554C121.922 30.3486 121.857 29.7251 121.857 29.0836C121.857 28.1084 122.005 27.1997 122.302 26.3558C122.6 25.512 123.105 24.7754 123.818 24.1444C124.532 23.5149 125.471 23.0213 126.636 22.665C127.801 22.3088 129.252 22.1307 130.987 22.1307C131.628 22.1307 132.324 22.1548 133.073 22.2016C133.821 22.2499 134.54 22.3088 135.23 22.3797C135.92 22.4507 136.561 22.5352 137.156 22.6288C137.749 22.7239 138.214 22.819 138.546 22.9141C138.69 22.9624 138.813 23.0334 138.921 23.1285C139.028 23.2236 139.081 23.367 139.081 23.5557V27.1574C139.081 27.3235 139.038 27.4669 138.955 27.5861C138.872 27.7054 138.711 27.7642 138.474 27.7642H138.403C138.142 27.7416 137.719 27.7114 137.136 27.6752C136.554 27.6389 135.894 27.5982 135.157 27.5499C134.421 27.5031 133.664 27.4608 132.893 27.4246C132.12 27.3884 131.436 27.3718 130.843 27.3718C129.821 27.3718 129.101 27.5272 128.686 27.8352C128.269 28.1446 128.063 28.6201 128.063 29.2617C128.063 29.5228 128.099 29.7493 128.17 29.9395C128.241 30.1297 128.366 30.3138 128.544 30.492C128.722 30.6701 128.965 30.8603 129.275 31.0626C129.583 31.2648 129.975 31.4973 130.452 31.7585L135.017 34.219C136.872 35.2183 138.137 36.3112 138.815 37.5007C139.493 38.6902 139.831 40.0095 139.831 41.4602L139.832 41.4572Z" fill="white"/>
<path d="M156.738 47.9119C156.738 48.1746 156.679 48.3572 156.56 48.4644C156.44 48.5716 156.25 48.6606 155.989 48.7316C155.489 48.8508 154.842 48.9686 154.045 49.0878C153.248 49.2071 152.315 49.266 151.245 49.266C148.724 49.266 146.708 48.4931 145.199 46.9473C143.689 45.4016 142.935 43.1675 142.935 40.242V37.2456C142.935 34.3216 143.689 32.086 145.199 30.5403C146.708 28.9945 148.724 28.2216 151.245 28.2216C152.315 28.2216 153.248 28.2805 154.045 28.3997C154.842 28.519 155.489 28.6382 155.989 28.756C156.25 28.8269 156.44 28.916 156.56 29.0232C156.679 29.1304 156.738 29.3145 156.738 29.5757V32.7502C156.738 32.9404 156.671 33.0883 156.541 33.1955C156.41 33.3027 156.25 33.3555 156.06 33.3555H155.989C155.323 33.2846 154.688 33.2257 154.081 33.1774C153.474 33.1306 152.66 33.1065 151.639 33.1065C151.234 33.1065 150.854 33.1729 150.497 33.3027C150.141 33.434 149.832 33.6589 149.57 33.9805C149.309 34.302 149.101 34.7292 148.947 35.2636C148.792 35.7979 148.715 36.4591 148.715 37.2426V40.239C148.715 41.0239 148.792 41.6836 148.947 42.218C149.101 42.7523 149.309 43.1811 149.57 43.5026C149.832 43.8241 150.141 44.049 150.497 44.1804C150.854 44.3117 151.234 44.3766 151.639 44.3766C152.66 44.3766 153.476 44.354 154.081 44.3056C154.688 44.2589 155.323 44.1985 155.989 44.1275H156.06C156.25 44.1275 156.41 44.1804 156.541 44.2875C156.671 44.3947 156.738 44.5426 156.738 44.7328V47.9074V47.9119Z" fill="white"/>
<path d="M177.922 48.1972C177.922 48.3874 177.845 48.5595 177.69 48.715C177.534 48.8705 177.362 48.9475 177.172 48.9475H172.856C172.666 48.9475 172.5 48.8705 172.357 48.7165C172.213 48.5625 172.142 48.3904 172.142 48.2002V36.3504C172.142 35.733 172.106 35.2123 172.035 34.7851C171.964 34.3579 171.833 34.0137 171.643 33.7541C171.453 33.4929 171.185 33.3087 170.84 33.2016C170.494 33.0944 170.049 33.0416 169.502 33.0416C168.956 33.0416 168.444 33.1487 167.898 33.3616C167.351 33.5744 166.769 33.8476 166.15 34.1797V48.2002C166.15 48.3904 166.079 48.5625 165.935 48.7165C165.792 48.8705 165.626 48.9475 165.436 48.9475H161.12C160.93 48.9475 160.758 48.8705 160.602 48.715C160.447 48.561 160.37 48.3889 160.37 48.1972V22.3043C160.37 22.1141 160.441 21.948 160.584 21.8046C160.727 21.6612 160.892 21.5903 161.084 21.5903H165.434C165.624 21.5903 165.79 21.6627 165.934 21.8046C166.076 21.948 166.148 22.1141 166.148 22.3043V29.8398C167.051 29.2421 167.919 28.8224 168.752 28.5824C169.584 28.3424 170.535 28.2231 171.605 28.2231C172.89 28.2231 173.942 28.4375 174.761 28.8647C175.581 29.2934 176.224 29.87 176.688 30.5946C177.151 31.3207 177.473 32.1766 177.651 33.1623C177.829 34.1496 177.918 35.2017 177.918 36.3187V48.1957L177.922 48.1972Z" fill="white"/>
<path d="M199.536 39.9944C199.536 41.4209 199.34 42.7056 198.946 43.8468C198.552 44.988 197.981 45.9571 197.231 46.7541C196.481 47.5511 195.551 48.1685 194.443 48.6093C193.335 49.0486 192.055 49.269 190.601 49.269C189.147 49.269 187.867 49.0486 186.759 48.6093C185.651 48.17 184.717 47.5511 183.955 46.7541C183.192 45.9571 182.614 44.988 182.222 43.8468C181.828 42.7056 181.631 41.4209 181.631 39.9944V37.4977C181.631 36.0712 181.828 34.7866 182.222 33.6454C182.614 32.5042 183.192 31.535 183.955 30.7395C184.717 29.9425 185.653 29.3251 186.759 28.8843C187.867 28.445 189.147 28.2246 190.601 28.2246C192.055 28.2246 193.335 28.445 194.443 28.8843C195.551 29.3251 196.479 29.9425 197.231 30.7395C197.981 31.5365 198.553 32.5057 198.946 33.6454C199.338 34.7866 199.536 36.0712 199.536 37.4977V39.9944ZM193.759 37.4977C193.759 34.5979 192.707 33.1472 190.602 33.1472C189.562 33.1472 188.77 33.5095 188.226 34.2356C187.683 34.9617 187.41 36.0485 187.41 37.4992V39.9959C187.41 41.4466 187.682 42.541 188.226 43.2777C188.77 44.0143 189.562 44.3826 190.602 44.3826C192.707 44.3826 193.759 42.9199 193.759 39.9959V37.4992V37.4977Z" fill="white"/>
<path d="M220.542 39.9944C220.542 41.4209 220.346 42.7056 219.952 43.8468C219.558 44.988 218.988 45.9571 218.237 46.7541C217.487 47.5511 216.557 48.1685 215.449 48.6093C214.341 49.0486 213.061 49.269 211.608 49.269C210.154 49.269 208.874 49.0486 207.766 48.6093C206.658 48.17 205.723 47.5511 204.961 46.7541C204.199 45.9571 203.621 44.988 203.228 43.8468C202.834 42.7056 202.638 41.4209 202.638 39.9944V37.4977C202.638 36.0712 202.834 34.7866 203.228 33.6454C203.621 32.5042 204.199 31.535 204.961 30.7395C205.723 29.9425 206.659 29.3251 207.766 28.8843C208.874 28.445 210.154 28.2246 211.608 28.2246C213.061 28.2246 214.341 28.445 215.449 28.8843C216.557 29.3251 217.486 29.9425 218.237 30.7395C218.988 31.5365 219.56 32.5057 219.952 33.6454C220.345 34.7866 220.542 36.0712 220.542 37.4977V39.9944ZM214.765 37.4977C214.765 34.5979 213.713 33.1472 211.609 33.1472C210.569 33.1472 209.777 33.5095 209.233 34.2356C208.69 34.9617 208.416 36.0485 208.416 37.4992V39.9959C208.416 41.4466 208.688 42.541 209.233 43.2777C209.777 44.0143 210.569 44.3826 211.609 44.3826C213.713 44.3826 214.765 42.9199 214.765 39.9959V37.4992V37.4977Z" fill="white"/>
<path d="M229.994 48.1972C229.994 48.3874 229.927 48.5595 229.797 48.715C229.666 48.8705 229.506 48.9475 229.316 48.9475H224.965C224.775 48.9475 224.603 48.8705 224.448 48.715C224.292 48.561 224.215 48.3889 224.215 48.1972V22.3043C224.215 22.1141 224.292 21.948 224.448 21.8046C224.602 21.6627 224.774 21.5903 224.965 21.5903H229.316C229.506 21.5903 229.666 21.6612 229.797 21.8046C229.927 21.948 229.994 22.1141 229.994 22.3043V48.1972Z" fill="white"/>
</g>
</g>
<defs>
<clipPath id="clip0_47_300">
<rect width="230" height="72" fill="white"/>
</clipPath>
<clipPath id="clip1_47_300">
<rect width="229.987" height="72" fill="white" transform="translate(0.00634766)"/>
</clipPath>
</defs>
</svg>
